<svg width="400" height="103" viewBox="0 0 400 103" fill="none" xmlns="http://www.w3.org/2000/svg">
<path d="M34.9513 38.8678C27.6152 43.1194 25.3643 43.8697 21.5296 51.2892C19.7789 53.7067 16.2207 44.62 20.6959 37.2005C24.6406 29.3642 34.9513 24.7791 41.4538 28.9474C41.4538 32.6988 38.2859 36.9352 34.9513 38.8678Z" fill="#332209"/>
<path d="M29.8487 44.0506C37.1849 39.799 39.4357 39.0487 43.2705 31.6292C45.0212 29.2116 48.5793 38.2984 44.1041 45.7179C40.1595 53.5542 29.8487 58.1392 23.3463 53.971C23.3463 50.2196 26.5141 45.9831 29.8487 44.0506Z" fill="#332209"/>
<path d="M44.5513 58.0678C37.2152 62.3194 34.9643 63.0697 31.1295 70.4892C29.3789 72.9067 25.8207 63.82 30.2959 56.4005C34.2406 48.5642 44.5513 43.9791 51.0537 48.1474C51.0537 51.8988 47.8859 56.1353 44.5513 58.0678Z" fill="#332209"/>
<path d="M39.4487 63.2506C46.7848 58.999 49.0357 58.2487 52.8705 50.8292C54.6211 48.4116 58.1793 57.4984 53.7041 64.9179C49.7594 72.7542 39.4487 77.3393 32.9463 73.171C32.9463 69.4196 36.1141 65.1831 39.4487 63.2506Z" fill="#332209"/>
<path d="M20.5513 58.0678C13.2152 62.3194 10.9643 63.0697 7.12953 70.4892C5.37887 72.9067 1.82071 63.82 6.29589 56.4005C10.2406 48.5642 20.5513 43.9791 27.0537 48.1474C27.0537 51.8988 23.8859 56.1353 20.5513 58.0678Z" fill="#332209"/>
<path d="M15.4487 63.2506C22.7848 58.999 25.0357 58.2487 28.8705 50.8292C30.6211 48.4116 34.1793 57.4984 29.7041 64.9179C25.7594 72.7542 15.4487 77.3393 8.94626 73.171C8.94626 69.4196 12.1141 65.1831 15.4487 63.2506Z" fill="#332209"/>
<rect x="77" y="47.2632" width="33.0144" height="9.09091" fill="#A8D195"/>
<path d="M110.014 42L127 50.6124L110.014 62.0957V42Z" fill="#A8D195"/>
<rect x="260" y="47.2632" width="33.0144" height="9.09091" fill="#A8D195"/>
<path d="M293.014 42L310 50.6124L293.014 62.0957V42Z" fill="#A8D195"/>
<path d="M183.27 16.8018C190.81 11.4938 200.686 10.8499 208.851 15.134L211.717 16.6376L214.197 18.0249C222.057 22.4223 226.052 31.4946 223.991 40.2618C221.034 52.8313 207.2 59.4315 195.57 53.8205L190.952 51.5924C188.791 50.55 186.808 49.1747 185.074 47.5168L180.742 43.374C173.898 36.8296 173.724 25.9532 180.356 19.194C181.077 18.4597 181.863 17.7923 182.704 17.2L183.27 16.8018Z" fill="#D9D9D9"/>
<path d="M183.27 16.8018C190.81 11.4938 200.686 10.8499 208.851 15.134L211.717 16.6376L214.197 18.0249C222.057 22.4223 226.052 31.4946 223.991 40.2618C221.034 52.8313 207.2 59.4315 195.57 53.8205L190.952 51.5924C188.791 50.55 186.808 49.1747 185.074 47.5168L180.742 43.374C173.898 36.8296 173.724 25.9532 180.356 19.194C181.077 18.4597 181.863 17.7923 182.704 17.2L183.27 16.8018Z" fill="url(#paint0_linear_407_2)" fill-opacity="0.2"/>
<path d="M187.123 17.2897C193.227 14.0269 200.543 13.9672 206.699 17.1299L209.169 18.399C210.776 19.2244 212.278 20.2396 213.643 21.4227L216.101 23.5535C220.288 27.1831 222.379 32.6692 221.668 38.1649C221.085 42.6736 218.672 46.7433 214.994 49.4167L214.436 49.8224C208.299 54.2846 200.032 54.4532 193.717 50.245L184.481 44.0892C180.593 41.4984 178.193 37.1924 178.034 32.5235C177.958 30.2941 178.397 28.0774 179.319 26.0458L179.571 25.4882C180.837 22.6967 182.829 20.2964 185.34 18.5383L187.123 17.2897Z" fill="#332209"/>
<path d="M187.123 17.2897C193.227 14.0269 200.543 13.9672 206.699 17.1299L209.169 18.399C210.776 19.2244 212.278 20.2396 213.643 21.4227L216.101 23.5535C220.288 27.1831 222.379 32.6692 221.668 38.1649C221.085 42.6736 218.672 46.7433 214.994 49.4167L214.436 49.8224C208.299 54.2846 200.032 54.4532 193.717 50.245L184.481 44.0892C180.593 41.4984 178.193 37.1924 178.034 32.5235C177.958 30.2941 178.397 28.0774 179.319 26.0458L179.571 25.4882C180.837 22.6967 182.829 20.2964 185.34 18.5383L187.123 17.2897Z" fill="url(#paint1_linear_407_2)" fill-opacity="0.2"/>
<path d="M175.368 31.5552L179.109 41.2583L187.279 49.2318L194.433 53.2504L199.426 55.1731L203.273 55.5831L208.244 55.4311L213.419 53.5803L217.039 51.3667L219.493 52.581L205.219 63.0605L190.934 61.5931L182.094 57.0128L177.641 52.7343L174.247 47.0078L172.906 38.9036L175.368 31.5552Z" fill="#C0C0C0"/>
<path d="M175.368 31.5552L179.109 41.2583L187.279 49.2318L194.433 53.2504L199.426 55.1731L203.273 55.5831L208.244 55.4311L213.419 53.5803L217.039 51.3667L219.493 52.581L205.219 63.0605L190.934 61.5931L182.094 57.0128L177.641 52.7343L174.247 47.0078L172.906 38.9036L175.368 31.5552Z" fill="url(#paint2_linear_407_2)" fill-opacity="0.2"/>
<path d="M171.666 57.5101C173.479 55.3941 176.672 55.1687 178.765 57.009L182.36 60.1714C182.7 60.4703 183.079 60.7216 183.486 60.9186L186.912 62.5743C189.643 63.8947 190.579 67.3241 188.896 69.8488L182.745 79.0782L176.794 86.4906C175.173 88.5101 172.277 88.9572 170.122 87.521L159.432 80.3964C156.935 78.7326 156.456 75.2604 158.408 72.9823L171.666 57.5101Z" fill="black"/>
<path d="M171.666 57.5101C173.479 55.3941 176.672 55.1687 178.765 57.009L182.36 60.1714C182.7 60.4703 183.079 60.7216 183.486 60.9186L186.912 62.5743C189.643 63.8947 190.579 67.3241 188.896 69.8488L182.745 79.0782L176.794 86.4906C175.173 88.5101 172.277 88.9572 170.122 87.521L159.432 80.3964C156.935 78.7326 156.456 75.2604 158.408 72.9823L171.666 57.5101Z" fill="url(#paint3_linear_407_2)" fill-opacity="0.2"/>
<path d="M175.048 53.8153L183.607 60.9243L192.166 64.9427L186.548 73.3721L168.393 61.2724L175.048 53.8153Z" fill="#D9D9D9"/>
<path d="M175.048 53.8153L183.607 60.9243L192.166 64.9427L186.548 73.3721L168.393 61.2724L175.048 53.8153Z" fill="url(#paint4_linear_407_2)" fill-opacity="0.2"/>
<path d="M177.036 50.8326L185.595 57.9415L194.154 61.96L188.536 70.3894L170.899 58.6354L177.036 50.8326Z" fill="#C0C0C0"/>
<path d="M177.036 50.8326L185.595 57.9415L194.154 61.96L188.536 70.3894L170.899 58.6354L177.036 50.8326Z" fill="url(#paint5_linear_407_2)" fill-opacity="0.2"/>
<path d="M182.606 14.5532L184.551 15.8496L175.735 29.0774L173.142 27.3488L174.287 23.2424L175.864 20.8757L177.441 18.509L179.688 16.261L182.606 14.5532Z" fill="#D9D9D9"/>
<path d="M182.606 14.5532L184.551 15.8496L175.735 29.0774L173.142 27.3488L174.287 23.2424L175.864 20.8757L177.441 18.509L179.688 16.261L182.606 14.5532Z" fill="url(#paint6_linear_407_2)" fill-opacity="0.2"/>
<path d="M219.431 52.7274L216.952 51.4964L224.607 37.0604L226.876 38.5728L226.352 43.1528L225.448 45.9213L224.041 48.729L222.202 50.7916L219.431 52.7274Z" fill="#D9D9D9"/>
<path d="M219.431 52.7274L216.952 51.4964L224.607 37.0604L226.876 38.5728L226.352 43.1528L225.448 45.9213L224.041 48.729L222.202 50.7916L219.431 52.7274Z" fill="url(#paint7_linear_407_2)" fill-opacity="0.2"/>
<path d="M345.464 78.7307H394.523L393.249 91.261L391.762 92.96L389.638 94.0219H382.417H368.613H349.924L348.012 92.96L346.526 90.6239L346.101 87.0134L345.464 78.7307Z" fill="#F1F1F1"/>
<path d="M345.464 78.7307H394.523L393.249 91.261L391.762 92.96L389.638 94.0219H382.417H368.613H349.924L348.012 92.96L346.526 90.6239L346.101 87.0134L345.464 78.7307Z" fill="url(#paint8_linear_407_2)" fill-opacity="0.2"/>
<path d="M342.915 53.2454H396.647L394.735 78.7308H345.464L342.915 53.2454Z" fill="#A8D195"/>
<path d="M342.915 53.2454H396.647L394.735 78.7308H345.464L342.915 53.2454Z" fill="url(#paint9_linear_407_2)" fill-opacity="0.2"/>
<path d="M341.429 32.8571H398.346L396.647 53.2454H343.128L341.429 32.8571Z" fill="#F1F1F1"/>
<path d="M341.429 32.8571H398.346L396.647 53.2454H343.128L341.429 32.8571Z" fill="url(#paint10_linear_407_2)" fill-opacity="0.2"/>
<ellipse cx="370" cy="30" rx="30" ry="20" fill="#F1F1F1"/>
<ellipse cx="370" cy="30" rx="30" ry="20" fill="url(#paint11_linear_407_2)" fill-opacity="0.2"/>
<ellipse cx="370" cy="27.1428" rx="24.2857" ry="12.8571" fill="#332209"/>
<defs>
<linearGradient id="paint0_linear_407_2" x1="195.832" y1="12.7931" x2="219.718" y2="49.3132" gradientUnits="userSpaceOnUse">
<stop stop-color="#383838"/>
<stop offset="0.932292" stop-opacity="0"/>
</linearGradient>
<linearGradient id="paint1_linear_407_2" x1="214.336" y1="42.636" x2="190.996" y2="48.4316" gradientUnits="userSpaceOnUse">
<stop stop-color="#392525"/>
<stop offset="0.484375" stop-color="#151111" stop-opacity="0.727273"/>
<stop offset="0.744792" stop-opacity="0"/>
</linearGradient>
<linearGradient id="paint2_linear_407_2" x1="199.427" y1="59.1064" x2="174.483" y2="34.4297" gradientUnits="userSpaceOnUse">
<stop stop-color="#1B1A1A"/>
<stop offset="1" stop-color="#312C2C" stop-opacity="0"/>
</linearGradient>
<linearGradient id="paint3_linear_407_2" x1="181.964" y1="58.3311" x2="164.852" y2="84.0084" gradientUnits="userSpaceOnUse">
<stop stop-color="#F4F4F4"/>
<stop offset="1" stop-color="#F4F4F4" stop-opacity="0"/>
</linearGradient>
<linearGradient id="paint4_linear_407_2" x1="185.898" y1="63.1067" x2="171.634" y2="60.9045" gradientUnits="userSpaceOnUse">
<stop offset="0.00849656"/>
<stop offset="0.834155" stop-opacity="0"/>
</linearGradient>
<linearGradient id="paint5_linear_407_2" x1="187.886" y1="60.124" x2="173.622" y2="57.9218" gradientUnits="userSpaceOnUse">
<stop offset="0.00849656"/>
<stop offset="0.834155" stop-color="#D9D9D9" stop-opacity="0"/>
</linearGradient>
<linearGradient id="paint6_linear_407_2" x1="179.907" y1="33.1754" x2="181.374" y2="15.2374" gradientUnits="userSpaceOnUse">
<stop/>
<stop offset="0.261787" stop-opacity="0.708517"/>
<stop offset="1" stop-opacity="0"/>
<stop offset="1" stop-opacity="0.124888"/>
</linearGradient>
<linearGradient id="paint7_linear_407_2" x1="226.115" y1="45.8975" x2="219.934" y2="45.6175" gradientUnits="userSpaceOnUse">
<stop/>
<stop offset="0.261787" stop-opacity="0.708517"/>
<stop offset="1" stop-opacity="0"/>
<stop offset="1" stop-opacity="0.124888"/>
</linearGradient>
<linearGradient id="paint8_linear_407_2" x1="401" y1="54" x2="355" y2="103" gradientUnits="userSpaceOnUse">
<stop offset="0.560712" stop-color="#3D3C3C"/>
<stop offset="1" stop-opacity="0"/>
</linearGradient>
<linearGradient id="paint9_linear_407_2" x1="387.5" y1="27" x2="334" y2="120" gradientUnits="userSpaceOnUse">
<stop/>
<stop offset="1" stop-color="#FAF8F8" stop-opacity="0"/>
</linearGradient>
<linearGradient id="paint10_linear_407_2" x1="369.887" y1="32.8571" x2="335.5" y2="88.5" gradientUnits="userSpaceOnUse">
<stop stop-color="#3D3C3C"/>
<stop offset="1" stop-color="#D3CECE" stop-opacity="0"/>
</linearGradient>
<linearGradient id="paint11_linear_407_2" x1="370" y1="50" x2="414.5" y2="25.5" gradientUnits="userSpaceOnUse">
<stop stop-color="#3D3C3C"/>
<stop offset="1" stop-color="#3D403F" stop-opacity="0"/>
</linearGradient>
</defs>
</svg>
