<svg width="250" height="65" viewBox="0 0 250 65" fill="none" xmlns="http://www.w3.org/2000/svg">
<path d="M21.8462 24.2917C17.261 26.949 15.8542 27.4179 13.4575 32.0552C12.3633 33.5662 10.1394 27.8869 12.9364 23.2496C15.4019 18.3519 21.8462 15.4862 25.9103 18.0914C25.9103 20.436 23.9303 23.0839 21.8462 24.2917Z" fill="#332209"/>
<path d="M18.6535 27.5301C23.2386 24.8728 24.6454 24.4038 27.0422 19.7666C28.1364 18.2556 30.3602 23.9349 27.5632 28.5721C25.0977 33.4699 18.6535 36.3356 14.5894 33.7304C14.5894 31.3857 16.5693 28.7379 18.6535 27.5301Z" fill="#332209"/>
<path d="M27.8531 36.2923C23.268 38.9496 21.8612 39.4185 19.4644 44.0558C18.3702 45.5668 16.1464 39.8875 18.9434 35.2502C21.4089 30.3525 27.8531 27.4868 31.9172 30.0919C31.9172 32.4366 29.9373 35.0844 27.8531 36.2923Z" fill="#332209"/>
<path d="M24.6604 39.5307C29.2456 36.8734 30.6524 36.4045 33.0491 31.7672C34.1433 30.2562 36.3672 35.9355 33.5702 40.5728C31.1047 45.4705 24.6604 48.3362 20.5963 45.7311C20.5963 43.3864 22.5763 40.7386 24.6604 39.5307Z" fill="#332209"/>
<path d="M12.8446 36.2923C8.25945 38.9496 6.85265 39.4185 4.45587 44.0558C3.3617 45.5668 1.13782 39.8875 3.93485 35.2502C6.40031 30.3525 12.8446 27.4868 16.9087 30.0919C16.9087 32.4366 14.9287 35.0844 12.8446 36.2923Z" fill="#332209"/>
<path d="M9.65188 39.5307C14.237 36.8734 15.6438 36.4045 18.0406 31.7672C19.1348 30.2562 21.3586 35.9355 18.5616 40.5728C16.0962 45.4705 9.65187 48.3362 5.58778 45.7311C5.58779 43.3864 7.56773 40.7386 9.65188 39.5307Z" fill="#332209"/>
<rect x="48.1265" y="29.5406" width="20.6342" height="5.68189" fill="#A8D195"/>
<path d="M68.7593 26.2519L79.3754 31.6347L68.7593 38.8118V26.2519Z" fill="#A8D195"/>
<rect x="162.505" y="29.5406" width="20.6342" height="5.68189" fill="#A8D195"/>
<path d="M183.138 26.2519L193.754 31.6347L183.138 38.8118V26.2519Z" fill="#A8D195"/>
<path d="M114.537 10.5012C119.249 7.18369 125.422 6.78129 130.526 9.45889L132.317 10.3986L133.867 11.2657C138.779 14.0141 141.276 19.6844 139.988 25.1639V25.1639C138.14 33.0199 129.493 37.1451 122.225 33.6382L119.338 32.2456C117.988 31.5941 116.748 30.7345 115.665 29.6984L112.957 27.1091C108.679 23.0188 108.571 16.2209 112.716 11.9964V11.9964C113.166 11.5374 113.657 11.1203 114.183 10.7501L114.537 10.5012Z" fill="#D9D9D9"/>
<path d="M114.537 10.5012C119.249 7.18369 125.422 6.78129 130.526 9.45889L132.317 10.3986L133.867 11.2657C138.779 14.0141 141.276 19.6844 139.988 25.1639V25.1639C138.14 33.0199 129.493 37.1451 122.225 33.6382L119.338 32.2456C117.988 31.5941 116.748 30.7345 115.665 29.6984L112.957 27.1091C108.679 23.0188 108.571 16.2209 112.716 11.9964V11.9964C113.166 11.5374 113.657 11.1203 114.183 10.7501L114.537 10.5012Z" fill="url(#paint0_linear_407_2)" fill-opacity="0.2"/>
<path d="M116.96 10.8078C120.775 8.76853 125.347 8.73121 129.195 10.7079L130.739 11.5011C131.743 12.017 132.682 12.6515 133.535 13.3909L135.071 14.7228C137.689 16.9912 138.995 20.4201 138.551 23.855V23.855C138.187 26.673 136.678 29.2165 134.38 30.8874L134.031 31.141C130.195 33.9299 125.028 34.0353 121.082 31.4051L115.308 27.5577C112.879 25.9384 111.379 23.2472 111.279 20.329V20.329C111.232 18.9357 111.506 17.5502 112.082 16.2804L112.24 15.9319C113.031 14.1872 114.276 12.687 115.845 11.5882L116.96 10.8078V10.8078Z" fill="#332209"/>
<path d="M116.96 10.8078C120.775 8.76853 125.347 8.73121 129.195 10.7079L130.739 11.5011C131.743 12.017 132.682 12.6515 133.535 13.3909L135.071 14.7228C137.689 16.9912 138.995 20.4201 138.551 23.855V23.855C138.187 26.673 136.678 29.2165 134.38 30.8874L134.031 31.141C130.195 33.9299 125.028 34.0353 121.082 31.4051L115.308 27.5577C112.879 25.9384 111.379 23.2472 111.279 20.329V20.329C111.232 18.9357 111.506 17.5502 112.082 16.2804L112.24 15.9319C113.031 14.1872 114.276 12.687 115.845 11.5882L116.96 10.8078V10.8078Z" fill="url(#paint1_linear_407_2)" fill-opacity="0.2"/>
<path d="M109.611 19.7238L111.949 25.7883L117.056 30.7718L121.527 33.2835L124.647 34.4852L127.052 34.7414L130.159 34.6464L133.393 33.4897L135.656 32.1062L137.19 32.865L128.268 39.4148L119.34 38.4977L113.815 35.635L111.032 32.9609L108.911 29.3818L108.072 24.3166L109.611 19.7238Z" fill="#C0C0C0"/>
<path d="M109.611 19.7238L111.949 25.7883L117.056 30.7718L121.527 33.2835L124.647 34.4852L127.052 34.7414L130.159 34.6464L133.393 33.4897L135.656 32.1062L137.19 32.865L128.268 39.4148L119.34 38.4977L113.815 35.635L111.032 32.9609L108.911 29.3818L108.072 24.3166L109.611 19.7238Z" fill="url(#paint2_linear_407_2)" fill-opacity="0.2"/>
<path d="M106.049 37.3854C107.862 35.2693 111.055 35.0439 113.148 36.8843L113.779 37.4397C114.117 37.7371 114.494 37.9873 114.9 38.1833V38.1833C117.619 39.4975 118.55 42.9107 116.875 45.4235L114.21 49.4233L111.564 52.7184C109.943 54.7379 107.047 55.185 104.892 53.7487L101.399 51.4207C98.9027 49.757 98.4232 46.2847 100.375 44.0066L106.049 37.3854Z" fill="black"/>
<path d="M106.049 37.3854C107.862 35.2693 111.055 35.0439 113.148 36.8843L113.779 37.4397C114.117 37.7371 114.494 37.9873 114.9 38.1833V38.1833C117.619 39.4975 118.55 42.9107 116.875 45.4235L114.21 49.4233L111.564 52.7184C109.943 54.7379 107.047 55.185 104.892 53.7487L101.399 51.4207C98.9027 49.757 98.4232 46.2847 100.375 44.0066L106.049 37.3854Z" fill="url(#paint3_linear_407_2)" fill-opacity="0.2"/>
<path d="M109.412 33.6353L114.761 38.0785L120.111 40.59L116.599 45.8585L105.252 38.296L109.412 33.6353Z" fill="#D9D9D9"/>
<path d="M109.412 33.6353L114.761 38.0785L120.111 40.59L116.599 45.8585L105.252 38.296L109.412 33.6353Z" fill="url(#paint4_linear_407_2)" fill-opacity="0.2"/>
<path d="M110.648 31.7712L115.998 36.2143L121.347 38.7259L117.836 43.9944L106.813 36.648L110.648 31.7712Z" fill="#C0C0C0"/>
<path d="M110.648 31.7712L115.998 36.2143L121.347 38.7259L117.836 43.9944L106.813 36.648L110.648 31.7712Z" fill="url(#paint5_linear_407_2)" fill-opacity="0.2"/>
<path d="M114.132 9.09746L115.348 9.90773L109.838 18.1752L108.217 17.0948L108.933 14.5283L109.918 13.049L110.904 11.5698L112.309 10.1648L114.132 9.09746Z" fill="#D9D9D9"/>
<path d="M114.132 9.09746L115.348 9.90773L109.838 18.1752L108.217 17.0948L108.933 14.5283L109.918 13.049L110.904 11.5698L112.309 10.1648L114.132 9.09746Z" fill="url(#paint6_linear_407_2)" fill-opacity="0.2"/>
<path d="M137.147 32.9562L135.598 32.1868L140.382 23.1642L141.8 24.1095L141.473 26.972L140.908 28.7024L140.028 30.4572L138.879 31.7464L137.147 32.9562Z" fill="#D9D9D9"/>
<path d="M137.147 32.9562L135.598 32.1868L140.382 23.1642L141.8 24.1095L141.473 26.972L140.908 28.7024L140.028 30.4572L138.879 31.7464L137.147 32.9562Z" fill="url(#paint7_linear_407_2)" fill-opacity="0.2"/>
<path d="M215.916 49.2087H246.578L245.782 57.0402L244.853 58.1021L243.525 58.7658H239.012H230.384H218.704L217.509 58.1021L216.58 56.642L216.314 54.3854L215.916 49.2087Z" fill="#F1F1F1"/>
<path d="M215.916 49.2087H246.578L245.782 57.0402L244.853 58.1021L243.525 58.7658H239.012H230.384H218.704L217.509 58.1021L216.58 56.642L216.314 54.3854L215.916 49.2087Z" fill="url(#paint8_linear_407_2)" fill-opacity="0.2"/>
<path d="M214.327 33.2793H247.909L246.715 49.2078H215.92L214.327 33.2793Z" fill="#A8D195"/>
<path d="M214.327 33.2793H247.909L246.715 49.2078H215.92L214.327 33.2793Z" fill="url(#paint9_linear_407_2)" fill-opacity="0.2"/>
<path d="M213.388 20.5372H248.962L247.9 33.2801H214.45L213.388 20.5372Z" fill="#F1F1F1"/>
<path d="M213.388 20.5372H248.962L247.9 33.2801H214.45L213.388 20.5372Z" fill="url(#paint10_linear_407_2)" fill-opacity="0.2"/>
<ellipse cx="231.25" cy="18.7493" rx="18.7502" ry="12.5001" fill="#F1F1F1"/>
<ellipse cx="231.25" cy="18.7493" rx="18.7502" ry="12.5001" fill="url(#paint11_linear_407_2)" fill-opacity="0.2"/>
<ellipse cx="231.249" cy="16.9632" rx="15.1788" ry="8.03582" fill="#332209"/>
<defs>
<linearGradient id="paint0_linear_407_2" x1="122.388" y1="7.9958" x2="137.318" y2="30.8212" gradientUnits="userSpaceOnUse">
<stop stop-color="#383838"/>
<stop offset="0.932292" stop-opacity="0"/>
</linearGradient>
<linearGradient id="paint1_linear_407_2" x1="133.968" y1="26.6495" x2="119.381" y2="30.2717" gradientUnits="userSpaceOnUse">
<stop stop-color="#392525"/>
<stop offset="0.484375" stop-color="#151111" stop-opacity="0.727273"/>
<stop offset="0.744792" stop-opacity="0"/>
</linearGradient>
<linearGradient id="paint2_linear_407_2" x1="124.648" y1="36.9435" x2="109.058" y2="21.5204" gradientUnits="userSpaceOnUse">
<stop stop-color="#1B1A1A"/>
<stop offset="1" stop-color="#312C2C" stop-opacity="0"/>
</linearGradient>
<linearGradient id="paint3_linear_407_2" x1="113.721" y1="36.4562" x2="103.026" y2="52.5048" gradientUnits="userSpaceOnUse">
<stop stop-color="#F4F4F4"/>
<stop offset="1" stop-color="#F4F4F4" stop-opacity="0"/>
</linearGradient>
<linearGradient id="paint4_linear_407_2" x1="116.193" y1="39.4425" x2="107.278" y2="38.0661" gradientUnits="userSpaceOnUse">
<stop offset="0.00849656"/>
<stop offset="0.834155" stop-opacity="0"/>
</linearGradient>
<linearGradient id="paint5_linear_407_2" x1="117.43" y1="37.5784" x2="108.514" y2="36.202" gradientUnits="userSpaceOnUse">
<stop offset="0.00849656"/>
<stop offset="0.834155" stop-color="#D9D9D9" stop-opacity="0"/>
</linearGradient>
<linearGradient id="paint6_linear_407_2" x1="112.445" y1="20.7365" x2="113.362" y2="9.5251" gradientUnits="userSpaceOnUse">
<stop/>
<stop offset="0.261787" stop-opacity="0.708517"/>
<stop offset="1" stop-opacity="0"/>
<stop offset="1" stop-opacity="0.124888"/>
</linearGradient>
<linearGradient id="paint7_linear_407_2" x1="141.325" y1="28.6875" x2="137.461" y2="28.5125" gradientUnits="userSpaceOnUse">
<stop/>
<stop offset="0.261787" stop-opacity="0.708517"/>
<stop offset="1" stop-opacity="0"/>
<stop offset="1" stop-opacity="0.124888"/>
</linearGradient>
<linearGradient id="paint8_linear_407_2" x1="250.627" y1="33.7518" x2="221.876" y2="64.3772" gradientUnits="userSpaceOnUse">
<stop offset="0.560712" stop-color="#3D3C3C"/>
<stop offset="1" stop-opacity="0"/>
</linearGradient>
<linearGradient id="paint9_linear_407_2" x1="242.193" y1="16.8756" x2="208.755" y2="75.0015" gradientUnits="userSpaceOnUse">
<stop/>
<stop offset="1" stop-color="#FAF8F8" stop-opacity="0"/>
</linearGradient>
<linearGradient id="paint10_linear_407_2" x1="231.175" y1="20.5372" x2="209.682" y2="55.3145" gradientUnits="userSpaceOnUse">
<stop stop-color="#3D3C3C"/>
<stop offset="1" stop-color="#D3CECE" stop-opacity="0"/>
</linearGradient>
<linearGradient id="paint11_linear_407_2" x1="231.25" y1="31.2494" x2="259.062" y2="15.9367" gradientUnits="userSpaceOnUse">
<stop stop-color="#3D3C3C"/>
<stop offset="1" stop-color="#3D403F" stop-opacity="0"/>
</linearGradient>
</defs>
</svg>
