<svg width="200" height="52" viewBox="0 0 200 52" fill="none" xmlns="http://www.w3.org/2000/svg">
<path d="M17.4767 19.4335C13.8086 21.5593 12.6832 21.9344 10.7658 25.6442C9.89043 26.853 8.11134 22.3096 10.3489 18.5998C12.3213 14.6816 17.4767 12.3891 20.728 14.4732C20.728 16.3489 19.144 18.4672 17.4767 19.4335Z" fill="#332209"/>
<path d="M14.9231 22.0243C18.5912 19.8985 19.7166 19.5233 21.634 15.8136C22.5093 14.6048 24.2884 19.1482 22.0508 22.858C20.0785 26.7762 14.9231 29.0687 11.6718 26.9846C11.6718 25.1088 13.2558 22.9906 14.9231 22.0243Z" fill="#332209"/>
<path d="M22.2813 29.0338C18.6132 31.1597 17.4878 31.5348 15.5703 35.2446C14.695 36.4534 12.9159 31.91 15.1535 28.2002C17.1259 24.282 22.2813 21.9894 25.5325 24.0736C25.5325 25.9493 23.9486 28.0675 22.2813 29.0338Z" fill="#332209"/>
<path d="M19.7276 31.6247C23.3957 29.4989 24.5212 29.1237 26.4386 25.414C27.3139 24.2052 29.093 28.7486 26.8554 32.4584C24.883 36.3766 19.7276 38.6691 16.4764 36.585C16.4764 34.7092 18.0603 32.591 19.7276 31.6247Z" fill="#332209"/>
<path d="M10.2757 29.0338C6.60757 31.1597 5.48214 31.5348 3.56472 35.2446C2.68938 36.4534 0.910288 31.91 3.1479 28.2002C5.12026 24.282 10.2757 21.9894 13.5269 24.0736C13.5269 25.9493 11.943 28.0675 10.2757 29.0338Z" fill="#332209"/>
<path d="M7.72202 31.6247C11.3901 29.4989 12.5155 29.1237 14.433 25.414C15.3083 24.2052 17.0874 28.7486 14.8498 32.4584C12.8774 36.3766 7.72201 38.6691 4.47075 36.585C4.47075 34.7092 6.0547 32.591 7.72202 31.6247Z" fill="#332209"/>
<rect x="38.501" y="23.6324" width="16.5073" height="4.5455" fill="#A8D195"/>
<path d="M55.0074 21.0012L63.5003 25.3075L55.0074 31.0492V21.0012Z" fill="#A8D195"/>
<rect x="130.004" y="23.6324" width="16.5073" height="4.5455" fill="#A8D195"/>
<path d="M146.51 21.0012L155.002 25.3075L146.51 31.0492V21.0012Z" fill="#A8D195"/>
<path d="M91.6304 8.40098C95.4006 5.74694 100.339 5.42502 104.421 7.5671L105.854 8.31886L107.094 9.01255C111.024 11.2112 113.022 15.7475 111.991 20.1311V20.1311C110.513 26.4159 103.596 29.716 97.7808 26.9105L95.4717 25.7964C94.3914 25.2752 93.3996 24.5876 92.5327 23.7586L90.3665 21.6872C86.9445 18.415 86.8578 12.9767 90.1738 9.59709V9.59709C90.5341 9.22991 90.9269 8.89621 91.3476 8.6001L91.6304 8.40098Z" fill="#D9D9D9"/>
<path d="M91.6304 8.40098C95.4006 5.74694 100.339 5.42502 104.421 7.5671L105.854 8.31886L107.094 9.01255C111.024 11.2112 113.022 15.7475 111.991 20.1311V20.1311C110.513 26.4159 103.596 29.716 97.7808 26.9105L95.4717 25.7964C94.3914 25.2752 93.3996 24.5876 92.5327 23.7586L90.3665 21.6872C86.9445 18.415 86.8578 12.9767 90.1738 9.59709V9.59709C90.5341 9.22991 90.9269 8.89621 91.3476 8.6001L91.6304 8.40098Z" fill="url(#paint0_linear_407_2)" fill-opacity="0.2"/>
<path d="M93.5668 8.64599C96.6187 7.01458 100.277 6.98472 103.355 8.56609L104.59 9.20063C105.393 9.61336 106.144 10.1209 106.827 10.7125L108.056 11.7779C110.15 13.5927 111.195 16.3358 110.84 19.0837V19.0837C110.548 21.3381 109.341 23.3729 107.503 24.7096L107.224 24.9125C104.155 27.1436 100.021 27.2279 96.864 25.1238L92.2456 22.0458C90.3018 20.7504 89.1017 18.5975 89.0222 16.2629V16.2629C88.9842 15.1483 89.204 14.0399 89.6645 13.0241L89.7909 12.7453C90.4237 11.3495 91.4199 10.1493 92.6753 9.27028L93.5668 8.64599V8.64599Z" fill="#332209"/>
<path d="M93.5668 8.64599C96.6187 7.01458 100.277 6.98472 103.355 8.56609L104.59 9.20063C105.393 9.61336 106.144 10.1209 106.827 10.7125L108.056 11.7779C110.15 13.5927 111.195 16.3358 110.84 19.0837V19.0837C110.548 21.3381 109.341 23.3729 107.503 24.7096L107.224 24.9125C104.155 27.1436 100.021 27.2279 96.864 25.1238L92.2456 22.0458C90.3018 20.7504 89.1017 18.5975 89.0222 16.2629V16.2629C88.9842 15.1483 89.204 14.0399 89.6645 13.0241L89.7909 12.7453C90.4237 11.3495 91.4199 10.1493 92.6753 9.27028L93.5668 8.64599V8.64599Z" fill="url(#paint1_linear_407_2)" fill-opacity="0.2"/>
<path d="M87.6883 15.7788L89.5584 20.6303L93.6437 24.6171L97.2208 26.6265L99.7171 27.5878L101.641 27.7928L104.126 27.7168L106.714 26.7914L108.524 25.6846L109.751 26.2917L102.614 31.5315L95.4708 30.7978L91.0509 28.5076L88.8245 26.3684L87.1275 23.5051L86.4569 19.453L87.6883 15.7788Z" fill="#C0C0C0"/>
<path d="M87.6883 15.7788L89.5584 20.6303L93.6437 24.6171L97.2208 26.6265L99.7171 27.5878L101.641 27.7928L104.126 27.7168L106.714 26.7914L108.524 25.6846L109.751 26.2917L102.614 31.5315L95.4708 30.7978L91.0509 28.5076L88.8245 26.3684L87.1275 23.5051L86.4569 19.453L87.6883 15.7788Z" fill="url(#paint2_linear_407_2)" fill-opacity="0.2"/>
<path d="M84.4557 30.3569C86.1177 28.4173 89.0446 28.2107 90.9626 29.8976L91.0243 29.9518C91.2949 30.1898 91.5965 30.3899 91.9209 30.5468V30.5468C94.0959 31.5981 94.8409 34.3286 93.5011 36.3389L91.3686 39.5387L89.8251 41.4612C88.2036 43.4807 85.3085 43.9278 83.1534 42.4915L82.0594 41.7625C79.563 40.0987 79.0834 36.6265 81.0355 34.3484L84.4557 30.3569Z" fill="black"/>
<path d="M84.4557 30.3569C86.1177 28.4173 89.0446 28.2107 90.9626 29.8976L91.0243 29.9518C91.2949 30.1898 91.5965 30.3899 91.9209 30.5468V30.5468C94.0959 31.5981 94.8409 34.3286 93.5011 36.3389L91.3686 39.5387L89.8251 41.4612C88.2036 43.4807 85.3085 43.9278 83.1534 42.4915L82.0594 41.7625C79.563 40.0987 79.0834 36.6265 81.0355 34.3484L84.4557 30.3569Z" fill="url(#paint3_linear_407_2)" fill-opacity="0.2"/>
<path d="M87.5283 26.9082L91.808 30.4627L96.0874 32.4719L93.2785 36.6867L84.2006 30.6367L87.5283 26.9082Z" fill="#D9D9D9"/>
<path d="M87.5283 26.9082L91.808 30.4627L96.0874 32.4719L93.2785 36.6867L84.2006 30.6367L87.5283 26.9082Z" fill="url(#paint4_linear_407_2)" fill-opacity="0.2"/>
<path d="M88.5183 25.4168L92.798 28.9713L97.0775 30.9806L94.2686 35.1953L85.45 29.3183L88.5183 25.4168Z" fill="#C0C0C0"/>
<path d="M88.5183 25.4168L92.798 28.9713L97.0775 30.9806L94.2686 35.1953L85.45 29.3183L88.5183 25.4168Z" fill="url(#paint5_linear_407_2)" fill-opacity="0.2"/>
<path d="M91.3052 7.27772L92.2778 7.92593L87.87 14.5399L86.5732 13.6756L87.1456 11.6224L87.9342 10.439L88.7229 9.25561L89.8465 8.13162L91.3052 7.27772Z" fill="#D9D9D9"/>
<path d="M91.3052 7.27772L92.2778 7.92593L87.87 14.5399L86.5732 13.6756L87.1456 11.6224L87.9342 10.439L88.7229 9.25561L89.8465 8.13162L91.3052 7.27772Z" fill="url(#paint6_linear_407_2)" fill-opacity="0.2"/>
<path d="M109.717 26.3647L108.478 25.7492L112.305 18.5311L113.44 19.2874L113.178 21.5774L112.726 22.9617L112.022 24.3655L111.103 25.3969L109.717 26.3647Z" fill="#D9D9D9"/>
<path d="M109.717 26.3647L108.478 25.7492L112.305 18.5311L113.44 19.2874L113.178 21.5774L112.726 22.9617L112.022 24.3655L111.103 25.3969L109.717 26.3647Z" fill="url(#paint7_linear_407_2)" fill-opacity="0.2"/>
<path d="M172.733 39.3666H197.263L196.625 45.6318L195.882 46.4814L194.82 47.0123H191.21H184.307H174.963L174.007 46.4814L173.264 45.3133L173.051 43.508L172.733 39.3666Z" fill="#F1F1F1"/>
<path d="M172.733 39.3666H197.263L196.625 45.6318L195.882 46.4814L194.82 47.0123H191.21H184.307H174.963L174.007 46.4814L173.264 45.3133L173.051 43.508L172.733 39.3666Z" fill="url(#paint8_linear_407_2)" fill-opacity="0.2"/>
<path d="M171.461 26.6233H198.327L197.371 39.3661H172.735L171.461 26.6233Z" fill="#A8D195"/>
<path d="M171.461 26.6233H198.327L197.371 39.3661H172.735L171.461 26.6233Z" fill="url(#paint9_linear_407_2)" fill-opacity="0.2"/>
<path d="M170.711 16.4296H199.17L198.32 26.6238H171.561L170.711 16.4296Z" fill="#F1F1F1"/>
<path d="M170.711 16.4296H199.17L198.32 26.6238H171.561L170.711 16.4296Z" fill="url(#paint10_linear_407_2)" fill-opacity="0.2"/>
<ellipse cx="185" cy="14.9995" rx="15.0002" ry="10.0001" fill="#F1F1F1"/>
<ellipse cx="185" cy="14.9995" rx="15.0002" ry="10.0001" fill="url(#paint11_linear_407_2)" fill-opacity="0.2"/>
<ellipse cx="184.999" cy="13.5708" rx="12.143" ry="6.42864" fill="#332209"/>
<defs>
<linearGradient id="paint0_linear_407_2" x1="97.9117" y1="6.39662" x2="109.855" y2="24.6569" gradientUnits="userSpaceOnUse">
<stop stop-color="#383838"/>
<stop offset="0.932292" stop-opacity="0"/>
</linearGradient>
<linearGradient id="paint1_linear_407_2" x1="107.173" y1="21.3193" x2="95.5035" y2="24.2171" gradientUnits="userSpaceOnUse">
<stop stop-color="#392525"/>
<stop offset="0.484375" stop-color="#151111" stop-opacity="0.727273"/>
<stop offset="0.744792" stop-opacity="0"/>
</linearGradient>
<linearGradient id="paint2_linear_407_2" x1="99.7174" y1="29.5545" x2="87.2454" y2="17.216" gradientUnits="userSpaceOnUse">
<stop stop-color="#1B1A1A"/>
<stop offset="1" stop-color="#312C2C" stop-opacity="0"/>
</linearGradient>
<linearGradient id="paint3_linear_407_2" x1="90.978" y1="29.1651" x2="82.4216" y2="42.0039" gradientUnits="userSpaceOnUse">
<stop stop-color="#F4F4F4"/>
<stop offset="1" stop-color="#F4F4F4" stop-opacity="0"/>
</linearGradient>
<linearGradient id="paint4_linear_407_2" x1="92.9536" y1="31.5539" x2="85.8215" y2="30.4528" gradientUnits="userSpaceOnUse">
<stop offset="0.00849656"/>
<stop offset="0.834155" stop-opacity="0"/>
</linearGradient>
<linearGradient id="paint5_linear_407_2" x1="93.9436" y1="30.0626" x2="86.8115" y2="28.9615" gradientUnits="userSpaceOnUse">
<stop offset="0.00849656"/>
<stop offset="0.834155" stop-color="#D9D9D9" stop-opacity="0"/>
</linearGradient>
<linearGradient id="paint6_linear_407_2" x1="89.9559" y1="16.5889" x2="90.6893" y2="7.61983" gradientUnits="userSpaceOnUse">
<stop/>
<stop offset="0.261787" stop-opacity="0.708517"/>
<stop offset="1" stop-opacity="0"/>
<stop offset="1" stop-opacity="0.124888"/>
</linearGradient>
<linearGradient id="paint7_linear_407_2" x1="113.059" y1="22.9498" x2="109.969" y2="22.8098" gradientUnits="userSpaceOnUse">
<stop/>
<stop offset="0.261787" stop-opacity="0.708517"/>
<stop offset="1" stop-opacity="0"/>
<stop offset="1" stop-opacity="0.124888"/>
</linearGradient>
<linearGradient id="paint8_linear_407_2" x1="200.501" y1="27.0012" x2="177.501" y2="51.5014" gradientUnits="userSpaceOnUse">
<stop offset="0.560712" stop-color="#3D3C3C"/>
<stop offset="1" stop-opacity="0"/>
</linearGradient>
<linearGradient id="paint9_linear_407_2" x1="193.753" y1="13.5004" x2="167.003" y2="60.0009" gradientUnits="userSpaceOnUse">
<stop/>
<stop offset="1" stop-color="#FAF8F8" stop-opacity="0"/>
</linearGradient>
<linearGradient id="paint10_linear_407_2" x1="184.941" y1="16.4296" x2="167.747" y2="44.2513" gradientUnits="userSpaceOnUse">
<stop stop-color="#3D3C3C"/>
<stop offset="1" stop-color="#D3CECE" stop-opacity="0"/>
</linearGradient>
<linearGradient id="paint11_linear_407_2" x1="185" y1="24.9996" x2="207.25" y2="12.7495" gradientUnits="userSpaceOnUse">
<stop stop-color="#3D3C3C"/>
<stop offset="1" stop-color="#3D403F" stop-opacity="0"/>
</linearGradient>
</defs>
</svg>
