<svg width="105" height="168" viewBox="0 0 105 168" fill="none" xmlns="http://www.w3.org/2000/svg">
<path d="M31.3977 79.7702C20.1897 86.2657 16.7509 87.412 10.8922 98.7473C8.21762 102.441 2.78154 88.5583 9.61862 77.223C15.6452 65.2508 31.3977 58.2459 41.332 64.614C41.332 70.3454 36.4922 76.8177 31.3977 79.7702Z" fill="#332209"/>
<path d="M23.6023 87.6883C34.8103 81.1928 38.2491 80.0466 44.1078 68.7112C46.7824 65.0177 52.2185 78.9003 45.3814 90.2356C39.3548 102.208 23.6023 109.213 13.668 102.845C13.668 97.1132 18.5078 90.6408 23.6023 87.6883Z" fill="#332209"/>
<path d="M81.3977 25.7702C70.1897 32.2657 66.7509 33.412 60.8922 44.7473C58.2176 48.4408 52.7815 34.5583 59.6186 23.223C65.6452 11.2508 81.3977 4.24588 91.332 10.614C91.332 16.3454 86.4922 22.8177 81.3977 25.7702Z" fill="#332209"/>
<path d="M73.6023 33.6883C84.8103 27.1928 88.2491 26.0466 94.1078 14.7112C96.7824 11.0177 102.218 24.9003 95.3814 36.2356C89.3548 48.2077 73.6023 55.2127 63.668 48.8445C63.668 43.1132 68.5078 36.6408 73.6023 33.6883Z" fill="#332209"/>
<path d="M81.3977 133.77C70.1897 140.266 66.7509 141.412 60.8922 152.747C58.2176 156.441 52.7815 142.558 59.6186 131.223C65.6452 119.251 81.3977 112.246 91.332 118.614C91.332 124.345 86.4922 130.818 81.3977 133.77Z" fill="#332209"/>
<path d="M73.6023 141.688C84.8103 135.193 88.2491 134.047 94.1078 122.711C96.7824 119.018 102.218 132.9 95.3814 144.236C89.3548 156.208 73.6023 163.213 63.668 156.845C63.668 151.113 68.5078 144.641 73.6023 141.688Z" fill="#332209"/>
</svg>
