<svg width="40" height="46" viewBox="0 0 40 46" fill="none" xmlns="http://www.w3.org/2000/svg">
<path d="M6.93447 41.6937L6.59877 37.3296H33.5253L32.8478 43.9919L32.1001 44.8464L31.0076 45.3927H27.0229H19.2923H8.89114L7.93284 44.8603L7.16506 43.6538L6.93447 41.6937Z" fill="#F1F1F1" stroke="black" stroke-width="0.5"/>
<path d="M6.55504 36.8297L5.17786 23.0579H34.7219L33.689 36.8297H6.55504Z" fill="#A8D195" stroke="black" stroke-width="0.5"/>
<path d="M5.25058 22.5578L4.3408 11.6404H35.6711L34.7613 22.5578H5.25058Z" fill="#F1F1F1" stroke="black" stroke-width="0.5"/>
<path d="M2.87979 5.93167L3.03089 5.93167L3.10113 5.79787L5.56317 1.10829L6.98648 0.34192L8.70743 0.34192L11.9186 0.341921L19.1734 0.34192L33.1483 0.34192L34.6728 1.1041L35.3519 2.91513L35.3586 2.93292L35.3679 2.9495L37.0329 5.92282L37.1045 6.05067L37.251 6.05067L39.1693 6.05067L39.7364 6.61781L39.7364 8.41716L39.7364 10.6572L38.9633 11.1404L1.27376 11.1403L0.649239 10.8281L0.38589 10.5648L0.275429 9.23921L0.275425 6.91913L0.469374 6.43426L0.870981 6.13305L1.27376 5.93167L2.87979 5.93167Z" fill="#332209" stroke="black" stroke-width="0.5"/>
</svg>
