<svg width="105" height="83" viewBox="0 0 105 83" fill="none" xmlns="http://www.w3.org/2000/svg">
<path d="M85.2221 38.5435L86.6309 35.0665C86.6792 34.9473 86.7949 34.8694 86.9234 34.8694H89.5778C90.3585 34.8694 91.1375 34.942 91.9048 35.0863L93.6554 35.4155C94.6787 35.6079 95.6334 36.066 96.4237 36.7439L98.0177 37.784C100.551 39.4373 102.496 41.8515 103.571 44.6794L104.045 45.9256C104.669 47.5692 104.829 49.3532 104.506 51.0815C104.202 52.7027 103.485 54.2179 102.423 55.4798L100.389 57.8973C99.0046 59.5419 97.3827 60.9703 95.5765 62.1353L93.8791 63.23C91.5221 64.7503 88.9635 65.9325 86.2781 66.7421L72.7024 70.835C72.6136 70.8617 72.5214 70.8753 72.4286 70.8753C71.7172 70.8753 71.259 70.121 71.587 69.4897L72.9938 66.7814L82.7765 44.422L84.0577 42.8068C85.284 41.261 87.7459 42.5243 87.2051 44.422L84.7076 53.5547C83.4901 56.5635 86.3646 59.6139 89.4404 58.5771L89.9633 58.4008C90.2046 58.3194 90.4377 58.2155 90.6595 58.0904L93.7547 56.3443C95.7376 55.2257 96.8601 53.0305 96.606 50.7681C96.4869 49.7081 96.0715 48.703 95.4073 47.8683L95.0195 47.3809C93.5321 45.5113 91.2734 44.422 88.8843 44.422H82.7765L85.2221 38.5435Z" fill="#E2E2E2"/>
<path d="M85.2221 38.5435L86.6309 35.0665C86.6792 34.9473 86.7949 34.8694 86.9234 34.8694H89.5778C90.3585 34.8694 91.1375 34.942 91.9048 35.0863L93.6554 35.4155C94.6787 35.6079 95.6334 36.066 96.4237 36.7439L98.0177 37.784C100.551 39.4373 102.496 41.8515 103.571 44.6794L104.045 45.9256C104.669 47.5692 104.829 49.3532 104.506 51.0815C104.202 52.7027 103.485 54.2179 102.423 55.4798L100.389 57.8973C99.0046 59.5419 97.3827 60.9703 95.5765 62.1353L93.8791 63.23C91.5221 64.7503 88.9635 65.9325 86.2781 66.7421L72.7024 70.835C72.6136 70.8617 72.5214 70.8753 72.4286 70.8753C71.7172 70.8753 71.259 70.121 71.587 69.4897L72.9938 66.7814L82.7765 44.422L84.0577 42.8068C85.284 41.261 87.7459 42.5243 87.2051 44.422L84.7076 53.5547C83.4901 56.5635 86.3646 59.6139 89.4404 58.5771L89.9633 58.4008C90.2046 58.3194 90.4377 58.2155 90.6595 58.0904L93.7547 56.3443C95.7376 55.2257 96.8601 53.0305 96.606 50.7681C96.4869 49.7081 96.0715 48.703 95.4073 47.8683L95.0195 47.3809C93.5321 45.5113 91.2734 44.422 88.8843 44.422H82.7765L85.2221 38.5435Z" fill="url(#paint0_linear_299_163)" fill-opacity="0.2"/>
<path d="M83.7711 16.5542C93.6208 31.8516 35.5721 36.1576 30.1978 35.1946C7.90884 31.2007 2.90805 22.338 2.39347 19.572C1.56099 15.0974 7.8048 4.17065 31.4272 2.29752C37.671 1.80244 72.3048 -1.25375 83.7711 16.5542Z" fill="#EAAE58"/>
<g style="mix-blend-mode:luminosity">
<path d="M44.7152 10.8311C44.7152 14.9723 28.8813 26.9182 26.2879 26.3152C24.0464 26.3152 15.5775 15.2232 22.966 12.0799C27.2326 8.64577 35.6056 8 37.847 8C40.0884 8 44.7152 8.47473 44.7152 10.8311Z" fill="white"/>
<path d="M44.7152 10.8311C44.7152 14.9723 28.8813 26.9182 26.2879 26.3152C24.0464 26.3152 15.5775 15.2232 22.966 12.0799C27.2326 8.64577 35.6056 8 37.847 8C40.0884 8 44.7152 8.47473 44.7152 10.8311Z" fill="url(#paint1_linear_299_163)" fill-opacity="0.2"/>
</g>
<path d="M67.1844 18.0943C67.1844 20.9105 60.3413 25.4828 56.778 25.4828C49.9103 26.7314 22.8222 26.5582 26.3919 26.2111C33.4682 25.0664 40.2323 11.7463 56.778 13.2033C60.0044 13.2033 65.936 14.6601 67.1844 18.0943Z" fill="white"/>
<path d="M67.1844 18.0943C67.1844 20.9105 60.3413 25.4828 56.778 25.4828C49.9103 26.7314 22.8222 26.5582 26.3919 26.2111C33.4682 25.0664 40.2323 11.7463 56.778 13.2033C60.0044 13.2033 65.936 14.6601 67.1844 18.0943Z" fill="url(#paint2_linear_299_163)" fill-opacity="0.2"/>
<path d="M3.09692 19.0866L3.07927 19.048L3.05534 19.0038C2.52055 18.0162 2.45328 16.696 3.18353 15.0887C3.92247 13.4623 5.46031 11.6118 7.9822 9.79949C13.0198 6.17943 21.7302 2.90087 34.6371 1.92081C34.7037 1.91576 34.7726 1.91051 34.8438 1.90509C38.4617 1.62942 47.8975 0.910443 57.9959 2.483C68.298 4.08728 78.9419 8.02244 84.9538 16.8713C85.822 18.8299 85.7851 20.4126 85.2111 21.7588C84.6011 23.1897 83.2961 24.5584 81.2787 25.8323C77.2249 28.3921 70.8516 30.2239 63.8094 31.4707C56.8137 32.7092 49.3385 33.3408 43.2109 33.5941C37.0241 33.8498 32.3776 33.7125 30.9697 33.4709C19.2394 31.4581 12.23 27.7379 8.1878 24.6105C6.16369 23.0445 4.87077 21.6173 4.09533 20.6078C3.70725 20.1027 3.44784 19.7009 3.29081 19.4371C3.21227 19.3052 3.1593 19.2077 3.12863 19.1491C3.11329 19.1197 3.10352 19.1001 3.09891 19.0907C3.09808 19.089 3.09742 19.0876 3.09692 19.0866Z" stroke="#E2E2E2" stroke-width="3"/>
<path d="M3.09692 19.0866L3.07927 19.048L3.05534 19.0038C2.52055 18.0162 2.45328 16.696 3.18353 15.0887C3.92247 13.4623 5.46031 11.6118 7.9822 9.79949C13.0198 6.17943 21.7302 2.90087 34.6371 1.92081C34.7037 1.91576 34.7726 1.91051 34.8438 1.90509C38.4617 1.62942 47.8975 0.910443 57.9959 2.483C68.298 4.08728 78.9419 8.02244 84.9538 16.8713C85.822 18.8299 85.7851 20.4126 85.2111 21.7588C84.6011 23.1897 83.2961 24.5584 81.2787 25.8323C77.2249 28.3921 70.8516 30.2239 63.8094 31.4707C56.8137 32.7092 49.3385 33.3408 43.2109 33.5941C37.0241 33.8498 32.3776 33.7125 30.9697 33.4709C19.2394 31.4581 12.23 27.7379 8.1878 24.6105C6.16369 23.0445 4.87077 21.6173 4.09533 20.6078C3.70725 20.1027 3.44784 19.7009 3.29081 19.4371C3.21227 19.3052 3.1593 19.2077 3.12863 19.1491C3.11329 19.1197 3.10352 19.1001 3.09891 19.0907C3.09808 19.089 3.09742 19.0876 3.09692 19.0866Z" stroke="url(#paint3_linear_299_163)" stroke-opacity="0.2" stroke-width="3"/>
<path d="M7.3885 25.8159L14.1526 29.8744L20.8127 32.0597L27.0565 34.141L34.1328 35.0776L52.448 34.141L67.9534 31.6435L81.2735 27.3769L86.6848 18.8437L87.1011 19.7802V20.7168L87.1906 33.3321C87.2002 34.6896 86.9333 36.0349 86.4061 37.286L72.4281 70.4591L63.7909 79.3045L52.448 82.2183H37.8791L27.0565 80.3451L17.1705 75.0379L5.82755 56.9309L2.18533 45.4839L0.520317 32.6841L0 25.2956L0.520317 19.8843L0.728444 18.3233L1.24876 16.6583L7.3885 25.8159Z" fill="#E2E2E2"/>
<path d="M7.3885 25.8159L14.1526 29.8744L20.8127 32.0597L27.0565 34.141L34.1328 35.0776L52.448 34.141L67.9534 31.6435L81.2735 27.3769L86.6848 18.8437L87.1011 19.7802V20.7168L87.1906 33.3321C87.2002 34.6896 86.9333 36.0349 86.4061 37.286L72.4281 70.4591L63.7909 79.3045L52.448 82.2183H37.8791L27.0565 80.3451L17.1705 75.0379L5.82755 56.9309L2.18533 45.4839L0.520317 32.6841L0 25.2956L0.520317 19.8843L0.728444 18.3233L1.24876 16.6583L7.3885 25.8159Z" fill="url(#paint4_linear_299_163)" fill-opacity="0.2"/>
<defs>
<linearGradient id="paint0_linear_299_163" x1="107.393" y1="61.4056" x2="75.2379" y2="44.4432" gradientUnits="userSpaceOnUse">
<stop/>
<stop offset="1" stop-opacity="0"/>
</linearGradient>
<linearGradient id="paint1_linear_299_163" x1="32.3235" y1="6.64718" x2="37.7348" y2="32.9752" gradientUnits="userSpaceOnUse">
<stop stop-color="#EAAE58"/>
<stop offset="1" stop-color="#FDFDFD" stop-opacity="0"/>
</linearGradient>
<linearGradient id="paint2_linear_299_163" x1="48.8696" y1="12.2666" x2="29.826" y2="27.772" gradientUnits="userSpaceOnUse">
<stop stop-color="#EAAE58"/>
<stop offset="0.936359" stop-color="white" stop-opacity="0"/>
</linearGradient>
<linearGradient id="paint3_linear_299_163" x1="-11.1348" y1="-0.0959351" x2="83.7711" y2="39.24" gradientUnits="userSpaceOnUse">
<stop/>
<stop offset="1" stop-opacity="0"/>
</linearGradient>
<linearGradient id="paint4_linear_299_163" x1="9.46977" y1="27.2728" x2="90.1189" y2="22.0696" gradientUnits="userSpaceOnUse">
<stop/>
<stop offset="1" stop-opacity="0"/>
</linearGradient>
</defs>
</svg>
